Coordinates
version=1
nRows=11
nColumns=40
inDegrees=yes

Units are S.I. units (second, meters, Newtons, ...)
If the header above contains a line with 'inDegrees', this indicates whether rotational values are in degrees (yes) or radians (no).

endheader
time	pelvis_tilt	pelvis_list	pelvis_rotation	pelvis_tx	pelvis_ty	pelvis_tz	hip_flexion_r	hip_adduction_r	hip_rotation_r	knee_angle_r	knee_angle_r_beta	ankle_angle_r	subtalar_angle_r	mtp_angle_r	hip_flexion_l	hip_adduction_l	hip_rotation_l	knee_angle_l	knee_angle_l_beta	ankle_angle_l	subtalar_angle_l	mtp_angle_l	lumbar_extension	lumbar_bending	lumbar_rotation	arm_flex_r	arm_add_r	arm_rot_r	elbow_flex_r	pro_sup_r	wrist_flex_r	wrist_dev_r	arm_flex_l	arm_add_l	arm_rot_l	elbow_flex_l	pro_sup_l	wrist_flex_l	wrist_dev_l
      3.58500000	    -33.10369742	     -1.31584210	     -1.35739822	     -0.32378786	      0.68897134	     -0.89605604	     83.80187981	    -17.30330074	     -6.02467847	     84.60838692	      1.47669493	     28.07092151	      0.00000000	      0.00000000	     84.38007325	    -25.30417612	     -5.45976530	     85.64724646	      1.49482645	     31.30583685	      0.00000000	      0.00000000	    -12.03607083	      2.32959017	     -3.49655994	    -28.98888229	    -37.04389037	     11.38527419	    111.69934542	     87.59655582	      0.00000000	      0.00000000	    -35.93049499	    -34.14599465	      6.08171502	    107.37432320	     87.95861244	      0.00000000	      0.00000000
      3.59000000	    -32.68266609	     -1.11827176	     -0.84609922	     -0.32066167	      0.69536903	     -0.89751589	     82.67863683	    -17.95607535	     -6.09295347	     83.85070921	      1.46347096	     27.48361563	      0.00000000	      0.00000000	     82.88717892	    -24.50366062	     -5.97004821	     84.50006356	      1.47480433	     30.97099582	      0.00000000	      0.00000000	    -11.47895525	      2.32703915	     -3.98644828	    -28.90150168	    -37.52902106	     11.62574185	    111.66017099	     87.58053760	      0.00000000	      0.00000000	    -35.98857009	    -34.33116381	      6.22874408	    107.40136257	     87.95859382	      0.00000000	      0.00000000
      3.59500000	    -32.19468126	     -1.14003659	     -1.41668874	     -0.31744168	      0.70227522	     -0.89596884	     81.38462503	    -17.20392841	     -6.27042477	     82.81380167	      1.44537351	     26.74130115	      0.00000000	      0.00000000	     81.39649940	    -25.16127099	     -6.41874619	     83.47397263	      1.45689566	     30.46248375	      0.00000000	      0.00000000	    -11.07780009	      2.25423434	     -3.40405367	    -28.72972322	    -37.86367707	     11.90829108	    111.76195489	     87.57935779	      0.00000000	      0.00000000	    -36.22645142	    -34.53979122	      6.09003014	    107.60684470	     87.96448906	      0.00000000	      0.00000000
      3.60000000	    -31.29975791	     -0.88558408	     -1.04127285	     -0.31338838	      0.70987944	     -0.89721726	     79.70416885	    -17.84744292	     -6.48476269	     82.00769048	      1.43130421	     25.90429472	      0.00000000	      0.00000000	     79.28882821	    -24.58217283	     -7.13660083	     82.34218997	      1.43714233	     29.99243210	      0.00000000	      0.00000000	    -11.02184293	      2.15353506	     -3.78141763	    -28.58161869	    -38.37059370	     12.09646020	    111.87102810	     87.56706300	      0.00000000	      0.00000000	    -36.37911191	    -34.68531252	      6.11777438	    107.71046196	     87.96017269	      0.00000000	      0.00000000
      3.60500000	    -30.32278836	     -0.96369373	     -1.51066356	     -0.30903229	      0.71832872	     -0.89600873	     77.71485117	    -17.28037248	     -6.85907957	     80.89651681	      1.41191057	     25.05004313	      0.00000000	      0.00000000	     77.07967125	    -25.22765586	     -7.85885250	     81.19787273	      1.41717022	     29.51816178	      0.00000000	      0.00000000	    -11.12685174	      2.14365107	     -3.34373173	    -28.29340246	    -38.72941343	     12.34848478	    111.96090345	     87.56117558	      0.00000000	      0.00000000	    -36.68605921	    -34.78241548	      5.91534388	    107.94168577	     87.95816988	      0.00000000	      0.00000000
      3.61000000	    -27.17354623	     -0.73349072	     -4.07840029	     -0.29966398	      0.73110778	     -0.88940972	     73.25754318	    -14.57294333	     -6.50601163	     79.51595341	      1.38781519	     24.79575529	      0.00000000	      0.00000000	     71.14743461	    -28.95008546	    -11.32652678	     80.16241171	      1.39909802	     29.67260374	      0.00000000	      0.00000000	    -13.43902413	      1.04318202	     -1.28859346	    -26.86734242	    -38.89117459	     13.75262624	    111.41585481	     87.53241701	      0.00000000	      0.00000000	    -37.34926523	    -34.79622300	      5.19095646	    107.84117825	     87.95936406	      0.00000000	      0.00000000
      3.61500000	    -28.67853806	     -0.61285811	     -1.57356364	     -0.30132120	      0.73470915	     -0.89615175	     74.31240834	    -17.36558403	     -7.20032706	     78.73057904	      1.37410783	     23.34181485	      0.00000000	      0.00000000	     72.88934446	    -25.03836341	     -9.47297724	     78.66738169	      1.37300482	     28.46676364	      0.00000000	      0.00000000	    -10.95509171	      1.70544195	     -5.75295403	    -23.85065281	    -41.57204007	     17.07717185	    112.19789364	     87.50169298	      0.00000000	      0.00000000	    -40.86924148	    -32.76309093	      1.74321109	    109.48461359	     87.98309122	      0.00000000	      0.00000000
      3.62000000	    -27.62688447	     -0.56688823	     -1.94199830	     -0.29681920	      0.74384122	     -0.89534948	     72.20712697	    -17.00295160	     -7.47619998	     77.44727956	      1.35171003	     22.33866682	      0.00000000	      0.00000000	     70.47957348	    -25.42383257	    -10.38927413	     77.40405398	      1.35095560	     27.72164731	      0.00000000	      0.00000000	    -11.11107017	      1.62637657	     -5.40555845	    -23.72561166	    -42.02929076	     17.00445612	    112.96070140	     87.49518136	      0.00000000	      0.00000000	    -41.40828721	    -32.92120101	      1.44294442	    110.01980493	     87.98914334	      0.00000000	      0.00000000
      3.62500000	    -26.46561614	     -0.50377676	     -1.68646255	     -0.29204243	      0.75389478	     -0.89614152	     69.77634618	    -17.37704949	     -8.00419251	     76.01667116	      1.32674120	     21.44238088	      0.00000000	      0.00000000	     67.90864171	    -24.96258367	    -11.00815115	     75.75729519	      1.32221423	     26.75310423	      0.00000000	      0.00000000	    -11.39283172	      1.67960072	     -5.67148452	    -23.57205117	    -42.53082572	     16.83345993	    113.79087258	     87.49275867	      0.00000000	      0.00000000	    -41.83024330	    -32.98579996	      1.24008367	    110.53565504	     87.98719291	      0.00000000	      0.00000000
      3.63000000	    -25.53502612	     -0.72249334	     -1.77805790	     -0.28694611	      0.76302678	     -0.89583304	     67.53348242	    -17.21094041	     -8.74712501	     74.63044770	      1.30254703	     20.45272382	      0.00000000	      0.00000000	     65.72289100	    -25.19795104	    -11.61897667	     74.38636620	      1.29828701	     25.98603244	      0.00000000	      0.00000000	    -11.33835900	      1.93477389	     -5.64149816	    -23.52615232	    -43.20732423	     16.85548225	    114.71429626	     87.50418390	      0.00000000	      0.00000000	    -42.75454018	    -32.99735338	      0.78578942	    111.30625494	     87.98832376	      0.00000000	      0.00000000
      3.63500000	    -24.58982617	     -0.43355484	     -1.83768064	     -0.28352498	      0.77286067	     -0.89598003	     65.56811748	    -17.30009484	     -8.89815629	     73.07921385	      1.27547290	     19.28915400	      0.00000000	      0.00000000	     63.34283122	    -24.85412239	    -12.48401489	     72.74388015	      1.26962022	     24.93012725	      0.00000000	      0.00000000	    -11.48170087	      1.67235135	     -5.91550254	    -23.06030882	    -43.93658945	     16.84510291	    115.83167012	     87.51636888	      0.00000000	      0.00000000	    -43.88554831	    -33.01186934	     -0.08891086	    112.42798327	     87.98943192	      0.00000000	      0.00000000
